<svg xmlns="http://www.w3.org/2000/svg" fill-rule="evenodd" clip-rule="evenodd" image-rendering="optimizeQuality" shape-rendering="geometricPrecision" text-rendering="geometricPrecision" viewBox="0 0 36.29 36.29">
  <defs/>
  <g id="Layer_x0020_1">
    <g id="_2047478855696">
      <path d="M14.04 11.03v-.15c.12.07.26.12.41.18 1.62.34 3.5.34 5.12 0 .15-.06.29-.11.41-.18V11.58l.14-.14c.2-.17.33-.22.4-.2.04.01.08.08.1.17.04.14.05.33.04.54-.03.58-.19 1.26-.3 1.3-.07.02-.18.06-.27.1-.08.04-.15.08-.19.12l-.06.13c-.02.8-.32 1.51-.82 2.01-1.03 1.04-2.99 1.04-4.02 0-.5-.5-.8-1.21-.82-2.01l-.06-.13c-.04-.04-.11-.08-.19-.12-.09-.04-.2-.08-.26-.1-.12-.04-.28-.72-.31-1.3-.01-.21 0-.4.04-.54.03-.09.06-.16.1-.17.07-.02.2.03.4.2l.14.14v-.55zm1.45-6.17c-.18.07-.2.31-.17.48.15.9.28 2.03.41 3.27-.01.24-.09.26-.21.05-.4-1.74-.6-2.84-.68-3.25-.02-.1-.14-.14-.22-.09-1 .68-1.65 1.82-1.71 3.1-.09.16-.2.25-.35.26-.1.03-.15.14-.17.32v.97c.02.15.11.27.27.35.2-.01.42 0 .66.05.15.03.27.13.37.28l.06.05v.17c-.14-.05-.26-.06-.36-.02-.2.06-.32.22-.38.46-.05.18-.07.41-.05.66.03.72.33 1.58.57 1.66.06.02.16.06.24.1h.01c.05.86.39 1.62.93 2.16 1.19 1.21 3.41 1.21 4.6 0 .54-.54.88-1.3.93-2.16h.01c.08-.04.18-.08.24-.1.24-.08.54-.94.58-1.66.01-.25 0-.48-.05-.66-.07-.24-.19-.4-.38-.46-.11-.04-.23-.03-.37.02v-.17l.06-.05c.1-.15.23-.25.37-.28.24-.05.46-.06.66-.05.16-.08.25-.2.27-.35.01-.31.01-.63 0-.97-.01-.18-.07-.29-.17-.32-.15-.01-.26-.1-.34-.26-.06-1.28-.72-2.42-1.72-3.1-.08-.05-.2-.01-.22.09-.08.41-.28 1.51-.68 3.25-.12.21-.19.19-.21-.05.13-1.24.26-2.37.42-3.27.03-.17 0-.41-.17-.48-.92-.38-2.13-.38-3.05 0zm1.52 20.88c.75-1.32 1.35-2.81 1.8-4.47l.63-.1c.05.26.12.52.2.76l-.7.28.11.28c.25.64.6 1.24 1.03 1.78l.19.24.59-.47c.17.19.36.38.55.55l-.47.59.24.19c.54.43 1.14.78 1.78 1.03l.28.11.28-.7c.25.08.5.15.76.2l-.09.58H8.55c-.22-.07-.38-.29-.47-.65-.01.24.11-1.51.37-5.23.06-.35.24-.64.54-.88 2.26-1 3.48-1.23 5.26-2.89.12-.05.18-.02.19.08.37 3.44 1.23 6.35 2.57 8.72zm0-.59c.42-1.02.8-1.81 1.15-3.1-.18-.92-.38-1.71-.6-2.43-.01-.04 0-.09.02-.15l.45-.93-1.02-.94-1.02.94.45.93c.03.06.03.11.02.15-.22.72-.42 1.51-.59 2.43.34 1.29.73 2.08 1.14 3.1zm7.5-11.74l.11.74c-.44.07-.87.19-1.28.35l-.27-.7c-.62.24-1.19.58-1.7.98l.47.59c-.35.27-.66.59-.94.93l-.58-.46c-.41.51-.75 1.08-.99 1.7l.7.27c-.16.41-.28.83-.34 1.28l-.74-.11c-.05.32-.08.65-.08.98 0 .33.03.66.08.98l.74-.11c.06.45.18.87.34 1.28l-.7.27c.24.62.58 1.19.99 1.7l.58-.46c.28.34.59.66.94.93l-.47.59c.51.4 1.08.74 1.7.98l.27-.7c.41.16.84.28 1.28.35l-.11.74c.32.04.65.07.98.07.34 0 .67-.03.99-.07l-.12-.74c.45-.07.88-.19 1.28-.35l.27.7c.62-.24 1.2-.58 1.71-.98l-.47-.59c.34-.27.66-.59.93-.93l.59.46c.41-.51.74-1.08.98-1.7l-.69-.27c.16-.41.27-.83.34-1.28l.74.11c.05-.32.07-.65.07-.98 0-.33-.02-.66-.07-.98l-.74.11c-.07-.45-.18-.87-.34-1.28l.69-.27c-.24-.62-.57-1.19-.98-1.7l-.59.46c-.27-.34-.59-.66-.93-.93l.47-.59c-.51-.4-1.09-.74-1.71-.98l-.27.69c-.4-.15-.83-.27-1.28-.34l.12-.74c-.32-.04-.65-.07-.99-.07-.33 0-.66.03-.98.07zm.98 2.17c2.42 0 4.38 1.96 4.38 4.38s-1.96 4.38-4.38 4.38c-2.41 0-4.37-1.96-4.37-4.38s1.96-4.38 4.37-4.38z" class="fil0"/>
      <path d="M8.46 6.53c2.62-2.19 6-3.51 9.69-3.51 8.35 0 15.13 6.77 15.13 15.13 0 3.85-1.44 7.36-3.81 10.03l2.13 2.14c2.92-3.22 4.69-7.49 4.69-12.17C36.29 8.12 28.17 0 18.15 0H.83c0 .12.04.23.13.32L13 12.36c-.02-.13-.04-.26-.04-.39-.02-.25 0-.48.05-.66.01-.06.03-.12.06-.17L8.46 6.53zm16.13 19.99l3.25 3.24c-2.63 2.2-6.01 3.52-9.69 3.52-8.36 0-15.13-6.78-15.13-15.13 0-3.85 1.44-7.37 3.81-10.04L4.69 5.97C1.78 9.19 0 13.46 0 18.15c0 10.02 8.12 18.14 18.15 18.14h17.32c0-.11-.05-.23-.14-.32l-9.41-9.41c-.14.01-.28.02-.43.02-.3 0-.6-.02-.9-.06z" class="fil0"/>
    </g>
  </g>
</svg>