<svg xmlns="http://www.w3.org/2000/svg" fill-rule="evenodd" clip-rule="evenodd" image-rendering="optimizeQuality" shape-rendering="geometricPrecision" text-rendering="geometricPrecision" viewBox="0 0 13.05 13.05">
  <defs/>
  <g id="Layer_x0020_1">
    <g id="_2047583932544">
      <path d="M4.27 3.58L3.04 2.35c.94-.79 2.16-1.26 3.48-1.26 3.01 0 5.44 2.43 5.44 5.43 0 1.39-.52 2.65-1.37 3.61l.77.77c1.05-1.16 1.69-2.69 1.69-4.38 0-3.6-2.92-6.52-6.53-6.52H.3c0 .04.01.08.05.12L4.1 3.87v-.12c0-.09.08-.17.17-.17zm4.5 5.88l1.24 1.24c-.95.79-2.16 1.26-3.49 1.26-3 0-5.43-2.43-5.43-5.44 0-1.38.51-2.64 1.36-3.6l-.76-.77C.64 3.3 0 4.84 0 6.52c0 3.61 2.92 6.53 6.52 6.53h6.23c0-.05-.02-.09-.05-.12L9.23 9.46h-.46z" class="fil0"/>
      <path d="M4.27 3.58h5.54c.1 0 .17.08.17.17v5.02c0 .38-.31.69-.69.69H3.75c-.38 0-.69-.31-.69-.69V4.7c0-.1.08-.18.18-.18h.86v-.77c0-.09.08-.17.17-.17zm-.52 5.54c.2 0 .35-.16.35-.35v-3.9h-.69v3.9c0 .19.15.35.34.35zm1.04-4.5v1.04h2.08V4.62H4.79zm0 1.56h2.08v-.26H4.79v.26zm0 1.04h2.08v-.26H4.79v.26zm2.42-1.04h2.08v-.26H7.21v.26zm0-1.04h2.08v-.26H7.21v.26zm0 .52h2.08V5.4H7.21v.26zM4.79 7.47v.26h2.08v-.26H4.79zm0 .52v.26h2.08v-.26H4.79zm2.42-1.03v.26h2.08v-.26H7.21zm0 .51v.26h2.08v-.26H7.21zm0 .52v.26h2.08v-.26H7.21z" class="fil0"/>
    </g>
  </g>
</svg>