<svg xmlns="http://www.w3.org/2000/svg" fill-rule="evenodd" clip-rule="evenodd" image-rendering="optimizeQuality" shape-rendering="geometricPrecision" text-rendering="geometricPrecision" viewBox="0 0 13.05 13.05">
  <defs/>
  <g id="Layer_x0020_1">
    <g id="_2047476315344">
      <path d="M4.01 3.32l-.97-.97c.94-.79 2.16-1.26 3.48-1.26 3.01 0 5.44 2.43 5.44 5.43 0 1.39-.52 2.65-1.37 3.61l.77.77c1.05-1.16 1.69-2.69 1.69-4.38 0-3.6-2.92-6.52-6.53-6.52H.3c0 .04.01.08.05.12l3.29 3.29c.09-.06.19-.09.3-.09h.07zm5.03 6.41l.97.97c-.95.79-2.16 1.26-3.49 1.26-3 0-5.43-2.43-5.43-5.44 0-1.38.51-2.64 1.36-3.6l-.76-.77C.64 3.3 0 4.84 0 6.52c0 3.61 2.92 6.53 6.52 6.53h6.23c0-.05-.02-.09-.05-.12l-3.2-3.2h-.46z" class="fil0"/>
      <path d="M9.14 3.32c.35 0 .64.38.64.85 0 .29-.11.55-.28.7-.01.14.05.22.18.24.3.03.47.09.59.16.14.09.23.27.24.55l.04 1.07c0 .16-.01.38-.1.65l-.33.96c-.04.1-.11.15-.19.17l-.05.88c0 .09-.05.18-.16.18h-1.2c-.11 0-.16-.09-.16-.18l-.05-.88c-.08-.02-.15-.07-.19-.17l-.13-.39-.27.79c-.04.11-.13.17-.22.19l-.06 1.07c-.01.1-.06.21-.2.21H5.81c-.14 0-.19-.11-.2-.21l-.06-1.07c-.1-.02-.18-.08-.22-.19l-.27-.79-.14.39c-.03.1-.1.15-.18.17l-.05.88c-.01.09-.05.18-.17.18H3.33c-.11 0-.16-.09-.16-.18l-.06-.88c-.08-.02-.15-.07-.18-.17l-.33-.96c-.1-.27-.11-.49-.1-.65l.04-1.07c.01-.28.09-.46.24-.55.11-.07.28-.13.58-.16.14-.02.2-.1.18-.25h.02c-.16-.16-.27-.41-.27-.69 0-.47.29-.85.65-.85.36 0 .65.38.65.85 0 .29-.11.55-.28.7-.01.14.05.22.18.24.22.02.37.06.48.1.04-.08.1-.14.17-.19.15-.09.35-.16.71-.2.16-.01.23-.11.21-.29h.02c-.19-.19-.32-.49-.32-.83 0-.56.35-1.02.78-1.02.43 0 .78.46.78 1.02 0 .35-.13.66-.33.84-.02.17.05.27.21.28.36.04.56.11.7.2.08.05.13.11.18.19.11-.04.26-.08.48-.1.13-.02.19-.1.17-.25h.02c-.16-.16-.26-.41-.26-.69 0-.47.29-.85.65-.85z" class="fil0"/>
    </g>
  </g>
</svg>