<svg xmlns="http://www.w3.org/2000/svg" fill-rule="evenodd" clip-rule="evenodd" image-rendering="optimizeQuality" shape-rendering="geometricPrecision" text-rendering="geometricPrecision" viewBox="0 0 5.53 5.53">
  <defs/>
  <g id="Layer_x0020_1">
    <g id="_2047474588432">
      <path d="M4.25 3.06v.61c0 .09-.08.16-.17.16H1.45c-.09 0-.17-.07-.17-.16v-.61c-.21 0-.39-.17-.39-.39 0-.21.18-.39.39-.39.17 0 .32.11.37.26l.12.34c.58-.16 1.41-.16 1.99 0l.12-.34c.05-.15.2-.26.37-.26.21 0 .39.18.39.39 0 .22-.18.39-.39.39zm-2.97-.92v-.05c0-.22.18-.4.39-.4h2.19c.21 0 .39.18.39.4v.05c-.23 0-.43.14-.5.35l-.08.23c-.54-.13-1.27-.13-1.81 0l-.08-.23c-.07-.21-.27-.35-.5-.35z" class="fil0"/>
      <path d="M2.13 1.83L1.29.99c.4-.33.91-.53 1.47-.53 1.28 0 2.31 1.03 2.31 2.3 0 .59-.22 1.13-.58 1.53l.32.33c.45-.49.72-1.14.72-1.86C5.53 1.24 4.29 0 2.76 0H.13c0 .02 0 .04.02.05l1.87 1.87c.03-.03.07-.06.11-.09zM3.4 3.69l.84.84c-.4.34-.91.54-1.48.54-1.27 0-2.3-1.03-2.3-2.31 0-.58.22-1.12.58-1.52L.71.91C.27 1.4 0 2.05 0 2.76c0 1.53 1.24 2.77 2.76 2.77H5.4c0-.02 0-.04-.02-.05L3.51 3.61c-.03.03-.07.06-.11.08z" class="fil0"/>
    </g>
  </g>
</svg>