<svg xmlns="http://www.w3.org/2000/svg" fill-rule="evenodd" clip-rule="evenodd" image-rendering="optimizeQuality" shape-rendering="geometricPrecision" text-rendering="geometricPrecision" viewBox="0 0 13.05 13.05">
  <path d="M3.46 4.86H7.5V2.74c0-.18-.14-.32-.32-.32h-3.4c-.17 0-.32.14-.32.32v2.12zm6.13 2.02H7.76v.72c.04 0 .08-.01.12-.01.54 0 .98.44.98.99 0 .54-.44.99-.98.99-.04 0-.08-.01-.12-.01v.59h1.67c.09 0 .16-.07.16-.15V6.88zm-1.84-1.1H9.4c.1 0 .18.08.18.18v.65H7.75v-.83zm-4.29-.69H7.5v5.22c0 .18-.14.32-.32.32h-3.4c-.17 0-.32-.14-.32-.32V5.09zm.47.51v.98c0 .08.06.14.14.14.08 0 .14-.06.14-.14V5.6c0-.08-.06-.15-.14-.15-.08 0-.14.07-.14.15zm0-2.31c0-.06.06-.11.14-.11.08 0 .14.05.14.11v.79c0 .06-.06.11-.14.11-.08 0-.14-.05-.14-.11v-.79z" class="fil0"/>
  <path d="M3.46 2.77l-.42-.42c.94-.79 2.16-1.26 3.48-1.26a5.43 5.43 0 014.07 9.04l.77.77a6.495 6.495 0 001.69-4.38c0-3.6-2.92-6.52-6.53-6.52H.3c0 .04.01.08.05.12l3.11 3.11v-.46zm6 7.38l.55.55c-.95.79-2.16 1.26-3.49 1.26-3 0-5.43-2.43-5.43-5.44 0-1.38.51-2.64 1.36-3.6l-.76-.77A6.47 6.47 0 000 6.52c0 3.61 2.92 6.53 6.52 6.53h6.23c0-.05-.02-.09-.05-.12L9.59 9.82V10c0 .08-.06.14-.13.15z" class="fil0"/>
</svg>