<svg xmlns="http://www.w3.org/2000/svg" fill-rule="evenodd" clip-rule="evenodd" image-rendering="optimizeQuality" shape-rendering="geometricPrecision" text-rendering="geometricPrecision" viewBox="0 0 36.29 36.29">
  <defs/>
  <g id="Layer_x0020_1">
    <g id="_2048129760368">
      <path d="M24.21 6.85H12.08c-.57 0-1.04.47-1.04 1.05v20.5c0 .57.47 1.04 1.04 1.04h12.13c.58 0 1.04-.47 1.04-1.04V7.9c0-.58-.46-1.05-1.04-1.05zm-6.06 19.51c.69 0 1.25.57 1.25 1.26 0 .69-.56 1.25-1.25 1.25-.7 0-1.26-.56-1.26-1.25s.56-1.26 1.26-1.26zm5.84-17.08v16.74H12.31V9.28h11.68z" class="fil0"/>
      <path d="M11.04 9.12L8.46 6.53c2.62-2.19 6-3.51 9.69-3.51 8.35 0 15.13 6.77 15.13 15.13 0 3.85-1.44 7.36-3.81 10.03l2.13 2.14c2.92-3.22 4.69-7.49 4.69-12.17C36.29 8.12 28.17 0 18.15 0H.83c0 .12.04.23.13.32L11.04 10.4V9.12zm14.21 18.06l2.59 2.58c-2.63 2.2-6.01 3.52-9.69 3.52-8.36 0-15.13-6.78-15.13-15.13 0-3.85 1.44-7.37 3.81-10.04L4.69 5.97C1.78 9.19 0 13.46 0 18.15c0 10.02 8.12 18.14 18.15 18.14h17.32c0-.11-.05-.23-.14-.32L25.25 25.9v1.28z" class="fil0"/>
    </g>
  </g>
</svg>