<svg xmlns="http://www.w3.org/2000/svg" fill-rule="evenodd" clip-rule="evenodd" image-rendering="optimizeQuality" shape-rendering="geometricPrecision" text-rendering="geometricPrecision" viewBox="0 0 7.59 7.59">
  <defs/>
  <g id="Layer_x0020_1">
    <g id="_2047594095120">
      <path d="M2.65 2.25l-.88-.88C2.32.91 3.02.63 3.79.63c1.75 0 3.17 1.42 3.17 3.16 0 .81-.3 1.55-.8 2.1l.45.45c.61-.67.98-1.57.98-2.55C7.59 1.7 5.89 0 3.79 0H.17c0 .02.01.05.03.07l2.28 2.27c.05-.04.1-.07.17-.09zm2.38 3.18l.79.79c-.55.46-1.25.74-2.03.74C2.05 6.96.63 5.54.63 3.79c0-.8.3-1.54.8-2.09l-.45-.45C.37 1.92 0 2.82 0 3.79c0 2.1 1.7 3.8 3.79 3.8h3.63c0-.02-.01-.05-.03-.07L5.3 5.43h-.27z" class="fil0"/>
      <path d="M5.99 3.33l-.2.07c.23.11.35.36.34.64 0 .07-.02.15-.03.23-.03.21-.07.36-.12.45v.42c0 .16-.13.29-.29.29H5.3c-.16 0-.29-.13-.29-.29v-.1c-.82.03-1.61.03-2.43 0v.1c0 .16-.13.29-.29.29H1.9c-.16 0-.29-.13-.29-.29v-.42c-.05-.09-.09-.24-.12-.45-.01-.08-.03-.16-.03-.23-.01-.28.11-.53.34-.64l-.2-.07c-.18-.06-.15-.31.04-.33l.23-.03c.08-.01.15.06.17.14.08-.19.16-.37.24-.52.11-.2.23-.31.46-.37.37-.09 1.74-.09 2.11 0 .23.06.35.17.46.37.08.15.16.33.24.52.02-.08.09-.15.17-.14l.23.03c.19.02.22.27.04.33zm-.61-.18c-.05-.13-.11-.26-.17-.36-.1-.21-.21-.31-.41-.36-.32-.08-1.69-.08-2.01 0-.2.05-.31.15-.41.36-.06.1-.12.23-.17.36-.02.03-.01.07.01.1s.05.04.09.04c.75-.09 2.22-.09 2.97 0 .04 0 .07-.01.09-.04.02-.03.03-.07.01-.1zM2.59 4.36c.09 0 .17-.08.17-.17v-.05c0-.1-.06-.17-.15-.19l-.53-.13c-.11-.02-.21.08-.21.19v.08c0 .15.12.27.27.27h.45zm2.41 0h.45c.15 0 .27-.12.27-.27v-.08c0-.11-.1-.21-.21-.19l-.53.13c-.09.02-.15.09-.15.19v.05c0 .09.08.17.17.17z" class="fil0"/>
    </g>
  </g>
</svg>