<svg xmlns="http://www.w3.org/2000/svg" fill-rule="evenodd" clip-rule="evenodd" image-rendering="optimizeQuality" shape-rendering="geometricPrecision" text-rendering="geometricPrecision" viewBox="0 0 5.53 5.53">
  <defs/>
  <g id="Layer_x0020_1">
    <g id="_2047577493968">
      <path d="M1.96 1.66L1.29 1c.4-.34.91-.54 1.47-.54 1.28 0 2.31 1.03 2.31 2.3 0 .59-.22 1.13-.58 1.53l.32.33c.45-.49.72-1.14.72-1.86C5.53 1.24 4.29 0 2.76 0H.13c0 .02 0 .04.02.05l1.61 1.61h.2zm1.45 2.05l.83.82c-.4.34-.91.54-1.48.54-1.27 0-2.3-1.03-2.3-2.31 0-.58.22-1.12.58-1.52L.71.91C.27 1.4 0 2.05 0 2.76c0 1.53 1.24 2.77 2.76 2.77H5.4c0-.02 0-.04-.02-.05L3.61 3.71h-.2z" class="fil0"/>
      <path d="M1.43 1.84h.42v-.18h-.63c-.06 0-.12-.05-.12-.11s.06-.12.12-.12h3.09c.06 0 .12.06.12.12v3.3c0 .06-.06.11-.12.11s-.11-.05-.11-.11V1.66h-.79v.18h.43c.1 0 .19.09.19.19v1.48c0 .11-.09.2-.19.2H1.43c-.11 0-.2-.09-.2-.2V2.03c0-.1.09-.19.2-.19zm.64-.18v.18H3.2v-.18H2.07zm1.47 1.22l-.92-.91-.92.91h.23v.66h1.38v-.66h.23zm-.98.32v-.33c-.1-.03-.17-.07-.22-.13-.05-.06-.07-.13-.07-.22s.02-.16.08-.22c.05-.06.12-.09.21-.1v-.08h.12v.08c.08.01.15.04.2.09.05.04.08.11.1.19l-.21.02c-.01-.06-.04-.1-.09-.12v.31c.13.03.21.07.26.13.04.05.07.12.07.21s-.03.17-.09.24c-.06.06-.14.1-.24.12v.15h-.12v-.15c-.09-.01-.16-.04-.22-.1-.05-.05-.09-.13-.11-.24l.21-.02c.01.04.02.08.05.11.02.03.05.05.07.06zm0-.83c-.03.01-.05.03-.07.06-.02.02-.03.05-.03.08s.01.06.03.08c.01.02.04.04.07.06v-.28zm.12.85c.04-.01.07-.03.1-.06.02-.03.03-.06.03-.1 0-.04-.01-.07-.03-.1-.02-.02-.05-.04-.1-.05v.31z" class="fil0"/>
    </g>
  </g>
</svg>