<svg xmlns="http://www.w3.org/2000/svg" fill-rule="evenodd" clip-rule="evenodd" image-rendering="optimizeQuality" shape-rendering="geometricPrecision" text-rendering="geometricPrecision" viewBox="0 0 13.05 13.05">
  <defs/>
  <g id="Layer_x0020_1">
    <g id="_2047483742256">
      <path d="M2.9 4.66h.34l3.03-2.63v-.02c0-.14.11-.25.25-.25s.26.11.26.25v.02L9.8 4.66h.34c.3 0 .54.24.54.54l.02 3.95c.01.3-.24.54-.54.54H2.92c-.29 0-.54-.24-.54-.54L2.36 5.2c0-.3.24-.54.54-.54zm.78 0h5.67l-2.77-2.4c-.02 0-.04.01-.06.01-.02 0-.04-.01-.05-.01l-2.79 2.4zm2.85.35L4.09 7.45h.61V9.2h1.22V8.04c0-.33.28-.61.61-.61.34 0 .61.28.61.61V9.2h1.23V7.45h.61L6.53 5.01z" class="fil0"/>
      <path d="M4.37 3.68L3.04 2.35c.94-.79 2.16-1.26 3.48-1.26 3.01 0 5.44 2.43 5.44 5.43 0 1.39-.52 2.65-1.37 3.61l.77.77c1.05-1.16 1.69-2.69 1.69-4.38 0-3.6-2.92-6.52-6.53-6.52H.3c0 .04.01.08.05.12l3.77 3.77.25-.21zM9 9.69l1.01 1.01c-.95.79-2.16 1.26-3.49 1.26-3 0-5.43-2.43-5.43-5.44 0-1.38.51-2.64 1.36-3.6l-.76-.77C.64 3.3 0 4.84 0 6.52c0 3.61 2.92 6.53 6.52 6.53h6.23c0-.05-.02-.09-.05-.12L9.46 9.69H9z" class="fil0"/>
    </g>
  </g>
</svg>